<svg width="14" height="16" viewBox="0 0 14 16" fill="none" xmlns="http://www.w3.org/2000/svg">
<path d="M1 13C0.734784 13 0.48043 13.1053 0.292893 13.2929C0.105357 13.4804 0 13.7347 0 14C0 14.2652 0.105357 14.5195 0.292893 14.7071C0.48043 14.8946 0.734784 15 1 15H8.268C8.44354 15.304 8.69602 15.5564 9.00004 15.732C9.30407 15.9075 9.64894 15.9999 10 15.9999C10.3511 15.9999 10.6959 15.9075 11 15.732C11.304 15.5564 11.5565 15.304 11.732 15H13C13.2652 15 13.5196 14.8946 13.7071 14.7071C13.8946 14.5195 14 14.2652 14 14C14 13.7347 13.8946 13.4804 13.7071 13.2929C13.5196 13.1053 13.2652 13 13 13H11.732C11.5565 12.696 11.304 12.4435 11 12.268C10.6959 12.0925 10.3511 12.0001 10 12.0001C9.64894 12.0001 9.30407 12.0925 9.00004 12.268C8.69602 12.4435 8.44354 12.696 8.268 13H1ZM1 6.99997C0.734784 6.99997 0.48043 7.10532 0.292893 7.29286C0.105357 7.4804 0 7.73475 0 7.99997C0 8.26518 0.105357 8.51954 0.292893 8.70707C0.48043 8.89461 0.734784 8.99997 1 8.99997H2.268C2.44354 9.30398 2.69602 9.55643 3.00004 9.73195C3.30407 9.90747 3.64894 9.99988 4 9.99988C4.35106 9.99988 4.69593 9.90747 4.99996 9.73195C5.30398 9.55643 5.55646 9.30398 5.732 8.99997H13C13.2652 8.99997 13.5196 8.89461 13.7071 8.70707C13.8946 8.51954 14 8.26518 14 7.99997C14 7.73475 13.8946 7.4804 13.7071 7.29286C13.5196 7.10532 13.2652 6.99997 13 6.99997H5.732C5.55646 6.69595 5.30398 6.4435 4.99996 6.26798C4.69593 6.09246 4.35106 6.00005 4 6.00005C3.64894 6.00005 3.30407 6.09246 3.00004 6.26798C2.69602 6.4435 2.44354 6.69595 2.268 6.99997H1ZM0 1.99997C0 1.73475 0.105357 1.48039 0.292893 1.29286C0.48043 1.10532 0.734784 0.999966 1 0.999966H8.268C8.44354 0.695951 8.69602 0.443497 9.00004 0.267977C9.30407 0.0924568 9.64894 5.34058e-05 10 5.34058e-05C10.3511 5.34058e-05 10.6959 0.0924568 11 0.267977C11.304 0.443497 11.5565 0.695951 11.732 0.999966H13C13.2652 0.999966 13.5196 1.10532 13.7071 1.29286C13.8946 1.48039 14 1.73475 14 1.99997C14 2.26518 13.8946 2.51954 13.7071 2.70707C13.5196 2.89461 13.2652 2.99997 13 2.99997H11.732C11.5565 3.30398 11.304 3.55643 11 3.73195C10.6959 3.90747 10.3511 3.99988 10 3.99988C9.64894 3.99988 9.30407 3.90747 9.00004 3.73195C8.69602 3.55643 8.44354 3.30398 8.268 2.99997H1C0.734784 2.99997 0.48043 2.89461 0.292893 2.70707C0.105357 2.51954 0 2.26518 0 1.99997Z" fill="#3B3A3A"/>
</svg>
